<svg width="87" height="17" viewBox="0 0 87 17" fill="none" xmlns="http://www.w3.org/2000/svg">
<path d="M8.88 3.98C8.92 3.78 8.94 3.50667 8.94 3.16C8.94 2.96 8.92667 2.76667 8.9 2.58C8.87333 2.38 8.82667 2.20667 8.76 2.06C8.69333 1.9 8.59333 1.78 8.46 1.7C8.32667 1.60667 8.15333 1.56 7.94 1.56C7.7 1.56 7.48 1.61333 7.28 1.72C7.08 1.82667 6.9 1.96667 6.74 2.14C6.59333 2.3 6.47333 2.49333 6.38 2.72C6.3 2.93333 6.26 3.16 6.26 3.4C6.26 3.74667 6.34667 4.01333 6.52 4.2C6.70667 4.38667 6.94667 4.54 7.24 4.66C7.53333 4.78 7.86667 4.88 8.24 4.96C8.61333 5.04 9 5.13333 9.4 5.24C9.73333 5.33333 10.0667 5.45333 10.4 5.6C10.7333 5.74667 11.0267 5.94667 11.28 6.2C11.5467 6.44 11.76 6.76 11.92 7.16C12.08 7.54667 12.16 8.03333 12.16 8.62C12.16 9.46 11.9933 10.1667 11.66 10.74C11.3267 11.3133 10.8667 11.78 10.28 12.14C9.69333 12.5 8.99333 12.76 8.18 12.92C7.38 13.08 6.50667 13.16 5.56 13.16C4.6 13.16 3.81333 13.1 3.2 12.98C2.6 12.8467 2.12667 12.7067 1.78 12.56C1.36667 12.3867 1.06 12.1867 0.86 11.96L1.54 9.22H5.06C5.04667 9.34 5.03333 9.50667 5.02 9.72C5.00667 9.92 5 10.08 5 10.2C5 10.36 5.02 10.5267 5.06 10.7C5.1 10.8733 5.16 11.0333 5.24 11.18C5.33333 11.3267 5.46 11.4467 5.62 11.54C5.78 11.6333 5.98 11.68 6.22 11.68C6.48667 11.68 6.72 11.62 6.92 11.5C7.13333 11.38 7.30667 11.2333 7.44 11.06C7.58667 10.8733 7.69333 10.6733 7.76 10.46C7.84 10.2333 7.88 10.0133 7.88 9.8C7.88 9.50667 7.80667 9.26 7.66 9.06C7.52667 8.86 7.34 8.69333 7.1 8.56C6.86 8.41333 6.58 8.29333 6.26 8.2C5.95333 8.09333 5.63333 7.98667 5.3 7.88C4.98 7.78667 4.64 7.67333 4.28 7.54C3.93333 7.40667 3.61333 7.22 3.32 6.98C3.02667 6.74 2.78 6.44 2.58 6.08C2.39333 5.70667 2.3 5.23333 2.3 4.66C2.3 3.80667 2.51333 3.09333 2.94 2.52C3.38 1.93333 3.92667 1.46 4.58 1.1C5.24667 0.739999 5.97333 0.486666 6.76 0.34C7.54667 0.179999 8.29333 0.0999992 9 0.0999992C9.93333 0.0999992 10.7333 0.213333 11.4 0.44C12.08 0.653333 12.5933 0.906666 12.94 1.2L12.2 3.98H8.88ZM17.0983 8.98C17.0449 9.27333 17.0049 9.55333 16.9783 9.82C16.9649 10.0867 16.9583 10.3267 16.9583 10.54C16.9583 10.66 16.9649 10.7933 16.9783 10.94C16.9916 11.0867 17.0183 11.2267 17.0583 11.36C17.1116 11.48 17.1783 11.5867 17.2583 11.68C17.3516 11.76 17.4783 11.8 17.6383 11.8C17.7583 11.8 17.8916 11.76 18.0383 11.68C18.1983 11.6 18.3516 11.4867 18.4983 11.34C18.6583 11.1933 18.8049 11.0133 18.9383 10.8C19.0849 10.5867 19.1983 10.3467 19.2783 10.08H22.5583L22.0383 12.22C21.7716 12.3933 21.4649 12.54 21.1183 12.66C20.7716 12.78 20.4049 12.88 20.0183 12.96C19.6316 13.0267 19.2383 13.0733 18.8383 13.1C18.4383 13.14 18.0583 13.16 17.6983 13.16C17.0316 13.16 16.4116 13.1 15.8383 12.98C15.2649 12.86 14.7649 12.6533 14.3383 12.36C13.9116 12.0667 13.5716 11.68 13.3183 11.2C13.0783 10.7067 12.9583 10.1 12.9583 9.38C12.9583 8.72667 13.0583 8.08667 13.2583 7.46C13.4716 6.83333 13.8183 6.28 14.2983 5.8C14.7916 5.30667 15.4449 4.91333 16.2583 4.62C17.0849 4.32667 18.1116 4.18 19.3383 4.18C20.6716 4.18 21.6716 4.38667 22.3383 4.8C23.0183 5.21333 23.3583 5.86 23.3583 6.74C23.3583 7.1 23.3049 7.49333 23.1983 7.92C23.0916 8.33333 22.9316 8.68667 22.7183 8.98H17.0983ZM19.7583 6.6C19.7583 6.18667 19.6916 5.90667 19.5583 5.76C19.4249 5.61333 19.2649 5.54 19.0783 5.54C18.8649 5.54 18.6649 5.61333 18.4783 5.76C18.3049 5.89333 18.1449 6.08 17.9983 6.32C17.8516 6.54667 17.7183 6.81333 17.5983 7.12C17.4783 7.41333 17.3783 7.72667 17.2983 8.06H19.5783C19.6049 7.9 19.6316 7.73333 19.6583 7.56C19.6849 7.41333 19.7049 7.25333 19.7183 7.08C19.7449 6.90667 19.7583 6.74667 19.7583 6.6ZM29.6386 6.66L31.7386 4.4H34.0386L30.4186 8.12L32.9986 13H28.7586L27.3586 10.36L24.7186 13H22.4186L26.5986 8.92L24.2186 4.4H28.4386L29.6386 6.66ZM38.7934 4.4L39.3934 10.28L42.5534 4.4H44.6734L39.8534 13C39.3734 13.84 38.8868 14.4867 38.3934 14.94C37.9001 15.3933 37.3601 15.7267 36.7734 15.94C36.2001 16.1533 35.5601 16.2733 34.8534 16.3C34.1601 16.34 33.3668 16.36 32.4734 16.36L32.7734 14.98C33.2134 14.98 33.6201 14.9733 33.9934 14.96C34.3801 14.9467 34.6868 14.9067 34.9134 14.84C35.2201 14.76 35.4401 14.6133 35.5734 14.4C35.7068 14.2 35.7734 13.9 35.7734 13.5C35.7734 13.2333 35.7468 12.9267 35.6934 12.58C35.6534 12.2333 35.6068 11.8667 35.5534 11.48L34.5734 4.4H38.7934ZM55.3855 11.92C55.0521 12.08 54.7055 12.24 54.3455 12.4C53.9988 12.5467 53.6255 12.68 53.2255 12.8C52.8255 12.9067 52.3855 12.9933 51.9055 13.06C51.4388 13.1267 50.9255 13.16 50.3655 13.16C48.5788 13.16 47.1988 12.76 46.2255 11.96C45.2655 11.16 44.7855 9.82667 44.7855 7.96C44.7855 6.88 44.9521 5.86667 45.2855 4.92C45.6188 3.96 46.1121 3.12667 46.7655 2.42C47.4188 1.7 48.2255 1.13333 49.1855 0.72C50.1455 0.306666 51.2455 0.0999992 52.4855 0.0999992C53.0721 0.0999992 53.6055 0.139999 54.0855 0.219999C54.5788 0.299999 55.0188 0.406666 55.4055 0.539999C55.8055 0.66 56.1588 0.793333 56.4655 0.939999C56.7855 1.08667 57.0721 1.22667 57.3255 1.36L56.6055 5.08H53.0055C53.0188 4.94667 53.0321 4.77333 53.0455 4.56C53.0721 4.34667 53.0921 4.13333 53.1055 3.92C53.1188 3.69333 53.1321 3.47333 53.1455 3.26C53.1588 3.04667 53.1655 2.86667 53.1655 2.72C53.1655 2.61333 53.1588 2.49333 53.1455 2.36C53.1321 2.21333 53.0988 2.07333 53.0455 1.94C52.9921 1.80667 52.9055 1.7 52.7855 1.62C52.6788 1.52667 52.5321 1.48 52.3455 1.48C51.9988 1.48 51.6788 1.62667 51.3855 1.92C51.1055 2.2 50.8521 2.58 50.6255 3.06C50.3988 3.52667 50.1988 4.06 50.0255 4.66C49.8521 5.26 49.7055 5.87333 49.5855 6.5C49.4788 7.11333 49.3921 7.72 49.3255 8.32C49.2721 8.92 49.2455 9.44667 49.2455 9.9C49.2455 10.0333 49.2521 10.2 49.2655 10.4C49.2788 10.6 49.3188 10.7933 49.3855 10.98C49.4521 11.1667 49.5521 11.3267 49.6855 11.46C49.8321 11.5933 50.0255 11.66 50.2655 11.66C50.6788 11.66 51.0788 11.4067 51.4655 10.9C51.8521 10.38 52.1921 9.46 52.4855 8.14H56.1855L55.3855 11.92ZM58.3189 5.14C58.9989 4.80667 59.6922 4.56667 60.3989 4.42C61.1189 4.26 61.9189 4.18 62.7989 4.18C63.6522 4.18 64.3589 4.24667 64.9189 4.38C65.4789 4.51333 65.9256 4.70667 66.2589 4.96C66.5922 5.21333 66.8256 5.51333 66.9589 5.86C67.0922 6.20667 67.1589 6.6 67.1589 7.04C67.1589 7.29333 67.1389 7.56667 67.0989 7.86C67.0722 8.15333 67.0389 8.4 66.9989 8.6L66.0589 13H62.8389L62.4789 11.72H62.3589C61.9322 12.1867 61.4322 12.5467 60.8589 12.8C60.2989 13.04 59.7389 13.16 59.1789 13.16C58.8589 13.16 58.5456 13.1133 58.2389 13.02C57.9322 12.9267 57.6589 12.7867 57.4189 12.6C57.1789 12.4 56.9856 12.1533 56.8389 11.86C56.6922 11.5533 56.6189 11.1867 56.6189 10.76C56.6189 10.0667 56.8056 9.52 57.1789 9.12C57.5656 8.70667 58.0656 8.4 58.6789 8.2C59.3056 7.98667 60.0056 7.85333 60.7789 7.8C61.5656 7.74667 62.3522 7.72 63.1389 7.72C63.1656 7.58667 63.1989 7.4 63.2389 7.16C63.2789 6.90667 63.2989 6.68667 63.2989 6.5C63.2989 6.26 63.2322 6.04 63.0989 5.84C62.9789 5.62667 62.7189 5.52 62.3189 5.52C61.8522 5.52 61.5056 5.66 61.2789 5.94C61.0656 6.20667 60.9256 6.53333 60.8589 6.92H57.9389L58.3189 5.14ZM62.9189 8.66H62.5589C62.1722 8.66 61.8389 8.71333 61.5589 8.82C61.2922 8.91333 61.0722 9.04 60.8989 9.2C60.7389 9.36 60.6189 9.54 60.5389 9.74C60.4589 9.94 60.4189 10.14 60.4189 10.34C60.4189 10.66 60.4989 10.9 60.6589 11.06C60.8322 11.22 61.0322 11.3 61.2589 11.3C61.5389 11.3 61.8122 11.2 62.0789 11C62.3589 10.8 62.5322 10.5333 62.5989 10.2L62.9189 8.66ZM69.5341 4.4H72.7941L73.0941 5.9H73.2341C73.5407 5.42 73.9341 5.01333 74.4141 4.68C74.8941 4.34667 75.5274 4.18 76.3141 4.18C76.3674 4.18 76.4474 4.18667 76.5541 4.2C76.6741 4.2 76.8007 4.22 76.9341 4.26C77.0807 4.28667 77.2274 4.33333 77.3741 4.4C77.5341 4.45333 77.6874 4.53333 77.8341 4.64L76.9541 8.76H74.7741C74.7474 7.93333 74.6741 7.36 74.5541 7.04C74.4341 6.70667 74.2407 6.54 73.9741 6.54C73.8407 6.54 73.6941 6.57333 73.5341 6.64C73.3874 6.69333 73.2341 6.82 73.0741 7.02L71.7941 13H67.7141L69.5341 4.4ZM83.722 6.92C83.7354 6.85333 83.7487 6.78667 83.762 6.72C83.7754 6.65333 83.782 6.58 83.782 6.5C83.782 6.26 83.7354 6.04 83.642 5.84C83.562 5.62667 83.3954 5.52 83.142 5.52C82.9154 5.52 82.6887 5.62 82.462 5.82C82.2354 6.00667 82.122 6.26 82.122 6.58C82.122 6.79333 82.1754 6.96667 82.282 7.1C82.402 7.22 82.5554 7.32 82.742 7.4C82.9287 7.48 83.1354 7.54667 83.362 7.6C83.602 7.65333 83.8354 7.70667 84.062 7.76C84.382 7.84 84.682 7.94 84.962 8.06C85.2554 8.16667 85.5154 8.31333 85.742 8.5C85.9687 8.68667 86.1487 8.92 86.282 9.2C86.4154 9.46667 86.482 9.8 86.482 10.2C86.482 10.76 86.3487 11.2333 86.082 11.62C85.8287 11.9933 85.4687 12.3 85.002 12.54C84.5487 12.7667 84.0087 12.9267 83.382 13.02C82.7687 13.1133 82.1087 13.16 81.402 13.16C80.322 13.16 79.4287 13.08 78.722 12.92C78.0154 12.76 77.522 12.6067 77.242 12.46L77.662 10.46H80.362C80.3487 10.5267 80.342 10.5933 80.342 10.66C80.342 10.7133 80.342 10.7733 80.342 10.84C80.342 11.1467 80.4087 11.3933 80.542 11.58C80.6887 11.7533 80.9354 11.84 81.282 11.84C81.6687 11.84 81.942 11.7333 82.102 11.52C82.2754 11.2933 82.362 11.0867 82.362 10.9C82.362 10.7133 82.2887 10.5533 82.142 10.42C82.0087 10.2733 81.8354 10.1533 81.622 10.06C81.4087 9.95333 81.1687 9.86667 80.902 9.8C80.6487 9.72 80.402 9.64667 80.162 9.58C79.9887 9.54 79.7887 9.47333 79.562 9.38C79.3487 9.28667 79.142 9.15333 78.942 8.98C78.742 8.80667 78.5754 8.58667 78.442 8.32C78.3087 8.04 78.242 7.69333 78.242 7.28C78.242 6.69333 78.382 6.20667 78.662 5.82C78.9554 5.42 79.3287 5.1 79.782 4.86C80.2487 4.62 80.7687 4.44667 81.342 4.34C81.9287 4.23333 82.5154 4.18 83.102 4.18C83.8354 4.18 84.5287 4.24667 85.182 4.38C85.8354 4.51333 86.3687 4.68667 86.782 4.9L86.322 6.92H83.722Z" fill="black"/>
</svg>
